RBDS03runT35_grf
version=1
nRows=30
nColumns=19
inDegrees=no
endheader
time	ground_force_r_vx	ground_force_r_vy	ground_force_r_vz	ground_force_r_px	ground_force_r_py	ground_force_r_pz	ground_force_r_mx	ground_force_r_my	ground_force_r_mz	ground_force_l_vx	ground_force_l_vy	ground_force_l_vz	ground_force_l_px	ground_force_l_py	ground_force_l_pz	ground_force_l_mx	ground_force_l_my	ground_force_l_mz
     14.99900000	   -209.05399700	   1576.79233562	     19.95040434	      2.35436919	      0.00000000	      1.12766648	      0.00000000	     15.17271655	      0.00000000	      0.00000000	      0.00000000	      0.00000000	      0.00000000	      0.00000000	      0.00000000	      0.00000000	      0.00000000	      0.00000000
     15.00000000	   -208.51825634	   1586.25142050	     20.72069307	      2.35250836	      0.00000000	      1.12754862	      0.00000000	     15.43296547	      0.00000000	      0.00000000	      0.00000000	      0.00000000	      0.00000000	      0.00000000	      0.00000000	      0.00000000	      0.00000000	      0.00000000
     15.00100000	   -207.12584061	   1594.91087156	     21.38212712	      2.35054423	      0.00000000	      1.12747126	      0.00000000	     15.66897681	      0.00000000	      0.00000000	      0.00000000	      0.00000000	      0.00000000	      0.00000000	      0.00000000	      0.00000000	      0.00000000	      0.00000000
     15.00200000	   -205.73342489	   1603.57032262	     22.04356117	      2.34858010	      0.00000000	      1.12739390	      0.00000000	     15.90498816	      0.00000000	      0.00000000	      0.00000000	      0.00000000	      0.00000000	      0.00000000	      0.00000000	      0.00000000	      0.00000000	      0.00000000
     15.00300000	   -204.34100916	   1612.22977368	     22.70499522	      2.34661597	      0.00000000	      1.12731653	      0.00000000	     16.14099950	      0.00000000	      0.00000000	      0.00000000	      0.00000000	      0.00000000	      0.00000000	      0.00000000	      0.00000000	      0.00000000	      0.00000000
     15.00400000	   -202.37588189	   1620.38271663	     23.29223970	      2.34457130	      0.00000000	      1.12726077	      0.00000000	     16.35809032	      0.00000000	      0.00000000	      0.00000000	      0.00000000	      0.00000000	      0.00000000	      0.00000000	      0.00000000	      0.00000000	      0.00000000
     15.00500000	   -200.12439885	   1628.28240553	     23.84238939	      2.34248636	      0.00000000	      1.12721581	      0.00000000	     16.56572087	      0.00000000	      0.00000000	      0.00000000	      0.00000000	      0.00000000	      0.00000000	      0.00000000	      0.00000000	      0.00000000	      0.00000000
     15.00600000	   -197.87291581	   1636.18209442	     24.39253908	      2.34040142	      0.00000000	      1.12717086	      0.00000000	     16.77335142	      0.00000000	      0.00000000	      0.00000000	      0.00000000	      0.00000000	      0.00000000	      0.00000000	      0.00000000	      0.00000000	      0.00000000
     15.00700000	   -195.34050720	   1643.83252426	     24.90697655	      2.33827190	      0.00000000	      1.12713405	     -0.00000000	     16.97049876	      0.00000000	      0.00000000	      0.00000000	      0.00000000	      0.00000000	      0.00000000	      0.00000000	      0.00000000	      0.00000000	      0.00000000
     15.00800000	   -192.24624746	   1650.98443599	     25.34998958	      2.33605321	      0.00000000	      1.12711354	     -0.00000000	     17.14667967	      0.00000000	      0.00000000	      0.00000000	      0.00000000	      0.00000000	      0.00000000	      0.00000000	      0.00000000	      0.00000000	      0.00000000
     15.00900000	   -189.15198772	   1658.13634772	     25.79300261	      2.33383452	      0.00000000	      1.12709303	     -0.00000000	     17.32286058	      0.00000000	      0.00000000	      0.00000000	      0.00000000	      0.00000000	      0.00000000	      0.00000000	      0.00000000	      0.00000000	      0.00000000
     15.01000000	   -186.05772798	   1665.28825945	     26.23601564	      2.33161583	      0.00000000	      1.12707251	     -0.00000000	     17.49904148	      0.00000000	      0.00000000	      0.00000000	      0.00000000	      0.00000000	      0.00000000	      0.00000000	      0.00000000	      0.00000000	      0.00000000
     15.01100000	   -182.15452317	   1671.67785964	     26.58172887	      2.32925491	      0.00000000	      1.12706876	     -0.00000000	     17.64172197	      0.00000000	      0.00000000	      0.00000000	      0.00000000	      0.00000000	      0.00000000	      0.00000000	      0.00000000	      0.00000000	      0.00000000
     15.01200000	   -178.25131837	   1678.06745984	     26.92744210	      2.32689400	      0.00000000	      1.12706500	     -0.00000000	     17.78440246	      0.00000000	      0.00000000	      0.00000000	      0.00000000	      0.00000000	      0.00000000	      0.00000000	      0.00000000	      0.00000000	      0.00000000
     15.01300000	   -174.34811357	   1684.45706004	     27.27315533	      2.32453308	      0.00000000	      1.12706124	     -0.00000000	     17.92708296	      0.00000000	      0.00000000	      0.00000000	      0.00000000	      0.00000000	      0.00000000	      0.00000000	      0.00000000	      0.00000000	      0.00000000
     15.01400000	   -169.93875831	   1690.31277171	     27.56361796	      2.32207447	      0.00000000	      1.12706380	     -0.00000000	     18.04667549	      0.00000000	      0.00000000	      0.00000000	      0.00000000	      0.00000000	      0.00000000	      0.00000000	      0.00000000	      0.00000000	      0.00000000
     15.01500000	   -165.27632782	   1695.90153913	     27.82645529	      2.31956700	      0.00000000	      1.12706952	     -0.00000000	     18.15472404	      0.00000000	      0.00000000	      0.00000000	      0.00000000	      0.00000000	      0.00000000	      0.00000000	      0.00000000	      0.00000000	      0.00000000
     15.01600000	   -160.61389733	   1701.49030655	     28.08929262	      2.31705954	      0.00000000	      1.12707524	     -0.00000000	     18.26277259	      0.00000000	      0.00000000	      0.00000000	      0.00000000	      0.00000000	      0.00000000	      0.00000000	      0.00000000	      0.00000000	      0.00000000
     15.01700000	   -155.71958996	   1706.79243004	     28.33042839	      2.31450304	      0.00000000	      1.12708188	     -0.00000000	     18.35916389	      0.00000000	      0.00000000	      0.00000000	      0.00000000	      0.00000000	      0.00000000	      0.00000000	      0.00000000	      0.00000000	      0.00000000
     15.01800000	   -150.36152887	   1711.52126569	     28.52816104	      2.31184844	      0.00000000	      1.12709035	     -0.00000000	     18.43224070	      0.00000000	      0.00000000	      0.00000000	      0.00000000	      0.00000000	      0.00000000	      0.00000000	      0.00000000	      0.00000000	      0.00000000
     15.01900000	   -145.00346778	   1716.25010134	     28.72589370	      2.30919385	      0.00000000	      1.12709881	     -0.00000000	     18.50531750	      0.00000000	      0.00000000	      0.00000000	      0.00000000	      0.00000000	      0.00000000	      0.00000000	      0.00000000	      0.00000000	      0.00000000
     15.02000000	   -139.64540668	   1720.97893698	     28.92362635	      2.30653926	      0.00000000	      1.12710728	     -0.00000000	     18.57839430	      0.00000000	      0.00000000	      0.00000000	      0.00000000	      0.00000000	      0.00000000	      0.00000000	      0.00000000	      0.00000000	      0.00000000
     15.02100000	   -133.66697324	   1724.77216200	     29.07606303	      2.30374016	      0.00000000	      1.12711245	     -0.00000000	     18.61680973	     -0.00000000	      0.00000000	      0.00000000	      0.00000000	      0.00000000	      0.00000000	      0.00000000	      0.00000000	      0.00000000	      0.00000000
     15.02200000	   -127.68853979	   1728.56538703	     29.22849971	      2.30094107	      0.00000000	      1.12711761	     -0.00000000	     18.65522517	     -0.00000000	      0.00000000	      0.00000000	      0.00000000	      0.00000000	      0.00000000	      0.00000000	      0.00000000	      0.00000000	      0.00000000
     15.02300000	   -121.71010635	   1732.35861205	     29.38093638	      2.29814198	      0.00000000	      1.12712278	     -0.00000000	     18.69364060	     -0.00000000	      0.00000000	      0.00000000	      0.00000000	      0.00000000	      0.00000000	      0.00000000	      0.00000000	      0.00000000	      0.00000000
     15.02400000	   -115.37452911	   1735.46947061	     29.51685722	      2.29525009	      0.00000000	      1.12712224	     -0.00000000	     18.70949358	     -0.00000000	      0.00000000	      0.00000000	      0.00000000	      0.00000000	      0.00000000	      0.00000000	      0.00000000	      0.00000000	      0.00000000
     15.02500000	   -108.86037997	   1738.23914594	     29.64452015	      2.29231181	      0.00000000	      1.12711885	     -0.00000000	     18.71406535	     -0.00000000	      0.00000000	      0.00000000	      0.00000000	      0.00000000	      0.00000000	      0.00000000	      0.00000000	      0.00000000	      0.00000000
     15.02600000	   -102.34623083	   1741.00882127	     29.77218307	      2.28937353	      0.00000000	      1.12711546	     -0.00000000	     18.71863711	     -0.00000000	      0.00000000	      0.00000000	      0.00000000	      0.00000000	      0.00000000	      0.00000000	      0.00000000	      0.00000000	      0.00000000
     15.02700000	    -95.68413134	   1743.40538400	     29.89823689	      2.28639133	      0.00000000	      1.12710777	     -0.00000000	     18.71232453	     -0.00000000	      0.00000000	      0.00000000	      0.00000000	      0.00000000	      0.00000000	      0.00000000	      0.00000000	      0.00000000	      0.00000000
     15.02800000	    -88.72613114	   1745.05572152	     30.02107249	      2.28332131	      0.00000000	      1.12709148	     -0.00000000	     18.68424328	     -0.00000000	      0.00000000	      0.00000000	      0.00000000	      0.00000000	      0.00000000	      0.00000000	      0.00000000	      0.00000000	      0.00000000
